<svg xmlns="http://www.w3.org/2000/svg" viewBox="0 0 1432.62 495.76"><defs><style>.cls-1,.cls-2{fill:#333;}.cls-2{opacity:0.1;}.cls-3{font-size:72px;fill:gray;font-family:Helvetica-Light, Helvetica;font-weight:300;letter-spacing:0.18em;}</style></defs><title>Migu-logo big U</title><g id="Layer_1" data-name="Layer 1"><polygon class="cls-1" points="0 46.75 0 291.81 48.28 291.81 48.28 140.57 98.16 221.53 144.75 221.53 196.78 136.81 196.78 291.81 245.06 291.81 245.06 46.75 196.51 46.75 121.67 166.62 48.05 46.75 0 46.75"/><circle class="cls-1" cx="489.96" cy="23.53" r="23.53"/><rect class="cls-1" x="466.43" y="111.95" width="47.06" height="179.67"/><circle class="cls-1" cx="940.03" cy="23.85" r="23.22"/><path class="cls-1" d="M1103,406.3A113.67,113.67,0,1,0,1216.64,520,113.67,113.67,0,0,0,1103,406.3Zm-.56,183.5a66.31,66.31,0,1,1,66.31-66.31A66.3,66.3,0,0,1,1102.41,589.8Z" transform="translate(-254 -342)"/><path class="cls-1" d="M1196.93,633.92,1157,660.77a66.31,66.31,0,1,1-119.68,39.34c0-.72,0-1.43.05-2.14H989.84A113.65,113.65,0,0,0,1104,812.22c61.79-.3,112.4-50.56,113.09-112.34A113.11,113.11,0,0,0,1196.93,633.92Z" transform="translate(-254 -342)"/><path class="cls-1" d="M1619,453.77v66h0c0,.1,0,.2,0,.3a66.31,66.31,0,1,1-132.61,0c0-.1,0-.2,0-.3h0v-66h-47.67v66h0a113.67,113.67,0,1,0,227.34,0v-66Z" transform="translate(-254 -342)"/><circle class="cls-2" cx="848.18" cy="181.45" r="66.31"/><text class="cls-3" transform="translate(1189.62 470.2)">Home</text></g></svg>
